# xmcd
#
# Track frame offsets: 
#        150
#        18960
#        39669
#        56415
#        87600
#        109067
#        128229
#        175153
#        180955
#        198910
#        218638
#        266059
#        315828
#
# Disc length: 4644 seconds
#
# Revision: 0
# Processed by: cddbd v1.5.2PL0 Copyright (c) Steve Scherf et al.
# Submitted via: ExactAudioCopy v0.99pb5
#
DISCID=a812220d
DTITLE=Van Morrison - The Best of 2000 disc 4
DYEAR=2008
DGENRE=Rhythmic Soul
TTITLE0=That's Life-06-13-Swansea-Wales
TTITLE1=Sometimes We Cry-06-13-Swansea-Wales
TTITLE2=Jackie Wilson Said-06-13-Swansea-Wales
TTITLE3=Make Me A Pallet On The Floor-06-14-Swansea-Wales
TTITLE4=One Irish Rover-04-21-LLandudno-Wales
TTITLE5=Bright Side Of The Road-04-21-LLandudno-Wales
TTITLE6=See Me Through-Soldier Of Fortune-Thank You-04-21-LLandudno-Wa
TTITLE6=les
TTITLE7=I Know An Old Lady-06-10-Oslo-Norway
TTITLE8=Goodnight Irene-03-14-Birmingham-England
TTITLE9=I Believe To My Soul-03-14-Birmingham-England
TTITLE10=It's All In The Game-03-14-Birmingham-England
TTITLE11=Philosopher's Stone-03-14-Birmingham-England
TTITLE12=It's A Man's, Man's, Man's World-03-14-Birmingham-England
EXTD=
EXTT0=
EXTT1=
EXTT2=
EXTT3=
EXTT4=
EXTT5=
EXTT6=
EXTT7=
EXTT8=
EXTT9=
EXTT10=
EXTT11=
EXTT12=
PLAYORDER=
